<svg width="39" height="41" viewBox="0 0 39 41" fill="none" xmlns="http://www.w3.org/2000/svg">
<g clip-path="url(#clip0_899_1067)">
<path d="M17.8777 22.1089L7.59854 17.5857C7.20981 17.4148 6.77203 17.6991 6.77203 18.1231C6.77203 18.5093 6.77203 31.1602 6.77203 31.4807C6.77203 31.9053 7.0237 32.2903 7.41313 32.4617L17.4023 36.8573C17.4784 36.8908 17.5593 36.9073 17.64 36.9073C17.7525 36.9073 17.8644 36.8752 17.9616 36.812C18.1284 36.7036 18.2289 36.5185 18.2289 36.32C18.2289 35.9792 18.2289 23.0315 18.2289 22.6463C18.2288 22.4135 18.0912 22.2028 17.8777 22.1089ZM17.051 35.4189L7.94964 31.414V22.665L17.051 26.6699V35.4189ZM17.051 25.386L7.94964 21.381V19.0242L17.051 23.0291V25.386Z" fill="black"/>
<path d="M20.3579 7.2651V5.95553C20.8577 5.99283 21.0293 6.23088 21.2382 6.23088C21.5143 6.23088 21.6336 5.88859 21.6336 5.71748C21.6336 5.28584 20.8427 5.14454 20.3579 5.12964V4.93613C20.3579 4.83954 20.2311 4.75012 20.1042 4.75012C19.9624 4.75012 19.8506 4.83946 19.8506 4.93613V5.14454C19.1046 5.24129 18.4033 5.65045 18.4033 6.59541C18.4033 7.54779 19.1717 7.83796 19.8506 8.09092V9.5716C19.1942 9.49724 18.9703 9.01356 18.6868 9.01356C18.4555 9.01356 18.2691 9.32605 18.2691 9.53438C18.2691 9.95104 18.9479 10.4347 19.8507 10.457V10.6654C19.8507 10.7621 19.9626 10.8514 20.1043 10.8514C20.2311 10.8514 20.3579 10.7621 20.3579 10.6654V10.4347C21.1935 10.3007 21.7679 9.77244 21.7679 8.85728C21.7678 7.84545 21.0217 7.51065 20.3579 7.2651ZM19.9102 7.10141C19.567 6.96744 19.3133 6.82606 19.3133 6.49874C19.3133 6.21598 19.5371 6.03738 19.9102 5.97792V7.10141ZM20.2982 9.56427V8.2696C20.619 8.41106 20.8578 8.58958 20.8578 8.95419C20.8578 9.3039 20.6264 9.49724 20.2982 9.56427Z" fill="#EB9309"/>
<path d="M35.5865 25.291C35.2612 25.291 34.9977 25.5539 34.9977 25.8783V33.1674C34.9977 33.2224 34.965 33.2722 34.9147 33.2944L20.7845 39.512V20.3223L24.4706 18.7003L34.9976 14.0681V23.1376C34.9976 23.462 35.2611 23.7248 35.5864 23.7248C35.9117 23.7248 36.1753 23.462 36.1753 23.1376C36.1753 22.7984 36.1752 13.0392 36.1752 13.1661C36.1753 12.9322 36.0334 12.7204 35.8213 12.6284L27.2322 8.90291C27.6394 5.10722 25.0298 1.79896 21.5299 1.06459C21.2116 0.997255 20.8995 1.2009 20.8325 1.51838C20.7654 1.83579 20.9692 2.14719 21.2875 2.21398C25.7674 3.15426 27.6706 8.62069 24.5795 12.1178H23.3377C27.0272 9.11685 24.9423 2.96068 20.0334 2.96068C15.1779 2.96068 13.0059 9.02852 16.7472 12.1178H15.4874C12.4178 8.6441 14.2765 3.15707 18.7817 2.21351C19.1001 2.14688 19.3039 1.83548 19.2371 1.51807C19.1702 1.20051 18.8577 0.997177 18.5398 1.06397C14.938 1.81823 12.3707 5.24868 12.8498 9.03719L4.57012 12.6284C4.36304 12.7182 4.22019 12.9249 4.21667 13.1583C4.21667 13.1607 4.21613 13.1631 4.21613 13.1655V13.167V33.1674C4.21613 33.6875 4.52435 34.1591 5.00133 34.369L19.958 40.9506C20.1045 41.0149 20.2794 41.0182 20.4335 40.9506L35.3903 34.3691C35.8672 34.1591 36.1753 33.6875 36.1753 33.1675V25.8784C36.1754 25.5539 35.9118 25.291 35.5865 25.291ZM20.0334 4.13519C21.7964 4.13519 23.3324 5.2621 23.8554 6.93941C24.9279 10.378 21.2726 13.2471 18.2093 11.6786C14.469 9.76118 15.8628 4.13519 20.0334 4.13519ZM5.39373 33.1674V14.0681C5.79482 14.2445 19.2815 20.1792 19.6068 20.3223V39.5121L5.47666 33.2943C5.42628 33.2722 5.39373 33.2224 5.39373 33.1674ZM20.1957 19.2976L6.27266 13.1709L13.1001 10.2096C13.3037 10.8813 13.6073 11.524 14.0051 12.1178H13.6659C13.3406 12.1178 13.077 12.3807 13.077 12.7051C13.077 13.0296 13.3406 13.2924 13.6659 13.2924C14.1078 13.2924 25.5769 13.2924 26.4036 13.2924C26.7289 13.2924 26.9925 13.0296 26.9925 12.7051C26.9925 12.3807 26.7289 12.1178 26.4036 12.1178H26.0617C26.484 11.4873 26.7999 10.8015 27.0031 10.0845L34.119 13.171L20.1957 19.2976Z" fill="black"/>
<path d="M15.5552 28.3558L9.87155 25.8548C9.57388 25.7241 9.22638 25.8584 9.09511 26.1551C8.96384 26.4519 9.09863 26.7986 9.39614 26.9296L15.0798 29.4306C15.3789 29.5619 15.7256 29.4259 15.8563 29.1303C15.9876 28.8334 15.8528 28.4868 15.5552 28.3558Z" fill="#EB9309"/>
<path d="M15.5552 30.9992L9.87155 28.4981C9.57396 28.3674 9.22638 28.5017 9.09511 28.7984C8.96384 29.0953 9.09863 29.4419 9.39614 29.5728L15.0798 32.0739C15.3776 32.2049 15.7251 32.0703 15.8563 31.7736C15.9876 31.4767 15.8528 31.1301 15.5552 30.9992Z" fill="#EB9309"/>
</g>
<defs>
<clipPath id="clip0_899_1067">
<rect width="39" height="41" fill="white"/>
</clipPath>
</defs>
</svg>
