<svg width="66" height="67" viewBox="0 0 66 67" fill="none" xmlns="http://www.w3.org/2000/svg">
<path d="M33.0996 22.5379C37.0744 22.5379 40.307 19.3052 40.307 15.3304C40.307 11.3557 37.0744 8.12244 33.0996 8.12244C29.1249 8.12244 25.8916 11.3563 25.8916 15.3304C25.8916 19.3052 29.1254 22.5379 33.0996 22.5379ZM33.0996 9.76161C36.17 9.76161 38.6673 12.2601 38.6673 15.3304C38.6673 18.4008 36.17 20.8981 33.0996 20.8981C30.0293 20.8981 27.5308 18.4008 27.5308 15.3304C27.5313 12.2601 30.0293 9.76161 33.0996 9.76161Z" fill="white"/>
<path d="M19.1129 16.1504H21.9104C22.3638 16.1504 22.7303 15.7839 22.7303 15.3305C22.7303 14.8771 22.3638 14.5106 21.9104 14.5106H19.1129C18.6595 14.5106 18.293 14.8771 18.293 15.3305C18.293 15.7839 18.6606 16.1504 19.1129 16.1504Z" fill="white"/>
<path d="M22.8211 19.8272L20.3466 21.1331C19.9464 21.3447 19.7926 21.8404 20.0042 22.2412C20.1517 22.5196 20.4353 22.678 20.7303 22.678C20.8589 22.678 20.9893 22.6477 21.1122 22.5837L23.5867 21.2778C23.9869 21.0662 24.1407 20.5705 23.9292 20.1697C23.7171 19.7701 23.2231 19.6186 22.8211 19.8273V19.8272Z" fill="white"/>
<path d="M26.1086 24.1056L24.53 26.4142C24.2744 26.7881 24.3699 27.2976 24.7438 27.5537C24.8856 27.6503 25.0463 27.6972 25.2052 27.6972C25.4665 27.6972 25.7238 27.5726 25.8822 27.3399L27.4607 25.0312C27.7163 24.6573 27.6208 24.1479 27.2469 23.8917C26.8741 23.6362 26.3635 23.7328 26.1086 24.1056V24.1056Z" fill="white"/>
<path d="M31.0118 26.3537L30.6939 29.133C30.6424 29.5829 30.9655 29.9889 31.4154 30.0398C31.4463 30.0438 31.4777 30.0455 31.5086 30.0455C31.9203 30.0455 32.2748 29.7373 32.3217 29.3182L32.6396 26.539C32.691 26.089 32.368 25.6831 31.918 25.6322C31.4732 25.5733 31.0621 25.9026 31.0118 26.3537L31.0118 26.3537Z" fill="white"/>
<path d="M36.8655 24.9911C36.4436 25.1551 36.2355 25.6303 36.4001 26.0528L37.4156 28.6594C37.5419 28.9842 37.8507 29.1815 38.1794 29.1815C38.2783 29.1815 38.3795 29.1643 38.4767 29.126C38.8987 28.9619 39.1068 28.4868 38.9421 28.0643L37.9267 25.4576C37.7615 25.0357 37.2852 24.8264 36.8655 24.9911V24.9911Z" fill="white"/>
<path d="M40.9391 22.1163C40.643 22.4582 40.6801 22.9762 41.0226 23.2718L43.1375 25.102C43.2918 25.2364 43.4834 25.3021 43.6738 25.3021C43.9025 25.3021 44.1317 25.2061 44.2936 25.0185C44.5897 24.6766 44.5525 24.1586 44.2101 23.863L42.0952 22.0329C41.7545 21.7373 41.2359 21.7733 40.9392 22.1163H40.9391Z" fill="white"/>
<path d="M46.7267 19.3091C47.0995 19.3091 47.4362 19.0535 47.5248 18.6745C47.6266 18.2337 47.3522 17.7934 46.9108 17.6911L44.1853 17.0593C43.745 16.9587 43.3042 17.232 43.2019 17.6733C43.1001 18.1142 43.3745 18.5544 43.8159 18.6568L46.5414 19.2885C46.6026 19.3028 46.6649 19.3091 46.7267 19.3091L46.7267 19.3091Z" fill="white"/>
<path d="M43.1267 12.6859C43.2234 13.053 43.5544 13.2965 43.9186 13.2965C43.9884 13.2965 44.0581 13.2874 44.1284 13.2697L46.8333 12.5573C47.2713 12.4418 47.5326 11.9935 47.4171 11.5556C47.3016 11.1176 46.8551 10.858 46.4154 10.9718L43.7105 11.6842C43.2725 11.8003 43.0118 12.2485 43.1267 12.6859V12.6859Z" fill="white"/>
<path d="M41.3376 8.57745C41.536 8.57745 41.7344 8.50598 41.8928 8.36133L43.9528 6.46762C44.2855 6.16116 44.3084 5.64202 44.002 5.30926C43.6943 4.97478 43.1775 4.9542 42.8436 5.26009L40.7836 7.15379C40.4509 7.46025 40.428 7.97939 40.7344 8.31215C40.8957 8.48825 41.1164 8.57745 41.3376 8.57745V8.57745Z" fill="white"/>
<path d="M36.5746 5.56097C36.6649 5.59299 36.7581 5.60843 36.849 5.60843C37.1858 5.60843 37.5025 5.39859 37.6209 5.06354L38.5585 2.42776C38.71 2.00066 38.487 1.53297 38.0611 1.38089C37.6357 1.22996 37.1652 1.45122 37.0142 1.87831L36.0766 4.51409C35.9256 4.94062 36.148 5.40945 36.5746 5.56096V5.56097Z" fill="white"/>
<path d="M31.4936 5.07602C31.533 5.07602 31.5725 5.07373 31.6125 5.06687C32.0608 5.00226 32.3718 4.58661 32.306 4.13834L31.9052 1.37053C31.8412 0.92228 31.4238 0.603243 30.9767 0.676998C30.5285 0.741606 30.2174 1.15726 30.2832 1.60552L30.684 4.37334C30.7423 4.78214 31.0928 5.07602 31.4936 5.07602H31.4936Z" fill="white"/>
<path d="M25.8489 6.76856C26.0095 6.98926 26.2594 7.10533 26.5127 7.10533C26.6796 7.10533 26.8489 7.05444 26.9947 6.94867C27.36 6.68224 27.4412 6.16938 27.1748 5.80346L25.5281 3.54223C25.26 3.17688 24.7489 3.09626 24.3829 3.36212C24.0176 3.62856 23.9364 4.14141 24.2028 4.50733L25.8489 6.76856Z" fill="white"/>
<path d="M20.1785 9.91076L22.6902 11.1429C22.8068 11.2001 22.9298 11.2275 23.0498 11.2275C23.3528 11.2275 23.645 11.0594 23.7857 10.7684C23.9846 10.3619 23.8177 9.87075 23.4112 9.67178L20.8995 8.43965C20.4936 8.23897 20.0013 8.40878 19.8029 8.81415C19.6051 9.22066 19.772 9.71179 20.1785 9.91076L20.1785 9.91076Z" fill="white"/>
<path d="M1.2471 40.5016C1.30542 40.5016 1.36431 40.4953 1.42319 40.4827C5.09262 39.6789 8.83304 39.0059 12.5511 38.4713L10.837 56.5009C10.8147 56.7302 10.8901 56.96 11.0462 57.1304C11.2017 57.3008 11.4224 57.3985 11.6528 57.3985H30.6865V60.8159H29.9072C27.4286 60.8159 25.4121 62.8324 25.4121 65.311C25.4121 65.7644 25.7786 66.1309 26.232 66.1309H40.4005C40.8539 66.1309 41.2204 65.7644 41.2204 65.311C41.2204 62.8324 39.2033 60.8159 36.7247 60.8159H35.9454V57.3985H54.979C55.2094 57.3985 55.4307 57.3008 55.5856 57.1304C55.7406 56.96 55.8166 56.7313 55.7949 56.5009L54.0631 38.2869C60.9154 39.2772 64.9045 40.4549 64.9458 40.4671C65.0247 40.4899 65.103 40.5014 65.1808 40.5014C65.5341 40.5014 65.8595 40.2721 65.9658 39.917C66.0956 39.4837 65.8492 39.0263 65.4158 38.8965C65.242 38.8439 61.1282 37.6278 53.9031 36.6077L53.5909 33.3219C53.5492 32.9005 53.1959 32.5792 52.7739 32.5792H13.8563C13.4332 32.5792 13.081 32.9005 13.041 33.3208L12.7116 36.789C8.82383 37.3373 4.91012 38.0399 1.07427 38.881C0.63174 38.9776 0.352149 39.4144 0.448781 39.8564C0.531112 40.2406 0.870157 40.5013 1.24637 40.5013L1.2471 40.5016ZM29.7375 55.7589L29.8713 51.604H36.6071L36.7409 55.7589H29.7375ZM13.4995 45.8093H20.0666L19.7996 49.9648H13.1044L13.4995 45.8093ZM21.7093 45.8093H28.4176L28.2838 49.9648H21.4423L21.7093 45.8093ZM36.4207 45.8093L36.5544 49.9648H29.9233L30.057 45.8093H36.4207ZM30.1097 44.1702L30.2435 40.0146H36.2343L36.3681 44.1702H30.1097ZM28.2315 51.604L28.0977 55.7589H21.0698L21.3368 51.604H28.2315ZM38.2463 51.604H45.1405L45.4075 55.7589H38.3795L38.2463 51.604ZM38.1937 49.9648L38.0599 45.8093H44.7682L45.0352 49.9648H38.1937ZM46.4119 45.8093H53.1305L53.5256 49.9648H46.6789L46.4119 45.8093ZM52.9744 44.1702H46.3067L46.0397 40.0146H52.58L52.9744 44.1702ZM44.6636 44.1702H38.0078L37.874 40.0146H44.396L44.6636 44.1702ZM37.8209 38.3743L37.6871 34.2194H44.0232L44.2902 38.3743H37.8209ZM36.1817 38.3743H30.2956L30.4293 34.2194H36.048L36.1817 38.3743ZM28.6564 38.3743H22.1877L22.4547 34.2194H28.7896L28.6564 38.3743ZM28.6038 40.0135L28.47 44.169H21.8154L22.0824 40.0135H28.6038ZM20.1723 44.17H13.656L14.0511 40.0145H20.4393L20.1723 44.17ZM12.9494 51.6039H19.6943L19.4272 55.7588H12.5543L12.9494 51.6039ZM39.4594 64.4917H27.1697C27.523 63.3144 28.6156 62.4557 29.9054 62.4557H36.7218C38.0128 62.4545 39.1059 63.3145 39.4593 64.4917H39.4594ZM34.3039 60.8153H32.325V57.398H34.3039V60.8153ZM47.0505 55.7588L46.7835 51.6039H53.681L54.0761 55.7588H47.0505ZM52.4226 38.3747H45.9327L45.6657 34.2198H52.0281L52.4226 38.3747ZM20.8116 34.2198L20.5446 38.3747H14.2062L14.6007 34.2198H20.8116Z" fill="white"/>
</svg>
