<svg width="54" height="54" viewBox="0 0 54 54" fill="none" xmlns="http://www.w3.org/2000/svg">
<path d="M39.9679 22.9793C39.5555 22.5669 38.8879 22.5669 38.4755 22.9793C38.0642 23.3907 38.0642 24.0583 38.4755 24.4706C38.8879 24.883 39.5555 24.883 39.9679 24.4706C40.3793 24.0583 40.3793 23.3907 39.9679 22.9793Z" fill="white"/>
<path d="M53.0675 6.89712L47.101 0.930677C45.8644 -0.30562 43.8634 -0.306042 42.6267 0.930677L40.7135 2.84387C39.929 3.62834 39.6287 4.73291 39.8654 5.78253L31.2158 7.30876C29.2868 7.65016 27.5365 8.56193 26.1549 9.94483L24.3058 11.7928C23.0881 13.0106 22.5919 14.6807 22.8165 16.2672C21.2181 16.0415 19.562 16.5378 18.3406 17.759C17.1211 18.9778 16.6225 20.6325 16.8481 22.2343C15.2503 22.0095 13.5946 22.5051 12.3742 23.7255C11.1894 24.9103 10.6497 26.5509 10.8828 28.2025C9.29601 27.9777 7.62582 28.4739 6.40787 29.6917L2.15846 33.9401C-0.719451 36.8182 -0.719556 41.5023 2.15856 44.3818L9.61643 51.8395C12.4954 54.7171 17.1791 54.7178 20.058 51.8393L24.3061 47.59C25.5241 46.3721 26.0203 44.7015 25.7952 43.1147C27.4396 43.3466 29.083 42.8131 30.2724 41.6238C31.4899 40.4062 31.986 38.7362 31.7612 37.1493C33.3968 37.3803 35.0428 36.8546 36.2388 35.6574C37.4564 34.4398 37.9525 32.7699 37.7279 31.1835C39.379 31.4166 41.02 30.8773 42.2054 29.6918L44.0527 27.8436C45.4362 26.4614 46.3479 24.711 46.6893 22.7815L48.2154 14.1325C49.2631 14.3687 50.368 14.0706 51.1542 13.2845L53.0674 11.3713C54.304 10.1348 54.3042 8.13373 53.0675 6.89712ZM22.8145 46.0985L18.5663 50.3477C16.5106 52.4036 13.1645 52.4035 11.1079 50.3477L3.6503 42.8903C1.59441 40.8335 1.59441 37.4875 3.65009 35.4317L7.89951 31.1834C9.13317 29.9496 11.1405 29.9496 12.3743 31.1834L22.8146 41.6236C24.0484 42.8573 24.0484 44.8647 22.8145 46.0985ZM28.7807 40.1321C27.5476 41.3653 25.5443 41.3704 24.306 40.1321L13.8657 29.6918C12.6295 28.4555 12.6292 26.4537 13.8658 25.217C15.1012 23.9816 17.1017 23.9812 18.3397 25.2163C18.34 25.2166 18.3402 25.2168 18.3405 25.2171L28.7804 35.6569L28.7805 35.657C28.7805 35.657 28.7805 35.657 28.7805 35.6571C30.014 36.8914 30.0142 38.8988 28.7807 40.1321ZM34.7468 34.1662C33.5117 35.4028 31.5082 35.403 30.2725 34.1658L19.8319 23.7253C18.5949 22.4892 18.5943 20.4876 19.8322 19.2507C21.0692 18.0137 23.0687 18.0135 24.3059 19.2507L34.7473 29.6921C35.9808 30.9254 35.9808 32.9324 34.7468 34.1662ZM44.6121 22.4145C44.3465 23.9152 43.6376 25.2766 42.5612 26.352L40.7136 28.2005C39.4799 29.4343 37.4726 29.4343 36.2388 28.2005L25.7975 17.7592C24.5638 16.5254 24.5638 14.5181 25.7972 13.2846L27.6466 11.4363C28.7213 10.3605 30.0828 9.65152 31.5829 9.38595L41.1018 7.70637L46.2916 12.8962L44.6121 22.4145ZM51.5759 9.87976L49.6627 11.7929C49.2505 12.205 48.5838 12.2051 48.1716 11.7929L42.2052 5.82651C41.7932 5.41423 41.7931 4.74767 42.2053 4.3354L44.1185 2.42221C44.5308 2.01004 45.1975 2.01014 45.6096 2.42221L51.5759 8.38865C51.9873 8.80018 51.9888 9.46664 51.5759 9.87976Z" fill="white"/>
<path d="M53.3048 39.9495L48.6051 30.7422C48.4249 30.3892 48.0621 30.167 47.6657 30.167C47.2694 30.167 46.9066 30.3892 46.7263 30.7422L42.027 39.9491C39.891 44.1278 42.9347 49.1513 47.6657 49.1513C52.3959 49.1513 55.4406 44.1287 53.3048 39.9495ZM47.6657 47.0419C44.5086 47.0419 42.4843 43.6891 43.9056 40.9085L47.6657 33.5416L51.4262 40.9089C52.8457 43.6864 50.8259 47.0419 47.6657 47.0419Z" fill="white"/>
<path d="M36.9843 19.9955L31.8923 14.9035C31.4804 14.4916 30.8128 14.4916 30.4007 14.9035C29.9888 15.3153 29.9888 15.9832 30.4007 16.395L35.4927 21.487C35.9047 21.8989 36.5723 21.8989 36.9843 21.487C37.3962 21.0751 37.3962 20.4074 36.9843 19.9955Z" fill="white"/>
</svg>
