<svg width="50" height="50" viewBox="0 0 50 50" fill="none" xmlns="http://www.w3.org/2000/svg">
<path d="M47.3792 50H5.52527C5.17851 50 4.89746 49.6389 4.89746 49.1936V24.8721C4.89746 24.4268 5.17851 24.0656 5.52527 24.0656H47.3792C47.7258 24.0656 48.007 24.4268 48.007 24.8721V49.1936C48.007 49.6389 47.7258 50 47.3792 50ZM6.15308 48.3871H46.7514V25.6785H6.15308V48.3871V48.3871Z" fill="black"/>
<path d="M28.0601 20.559H0.62876C0.392599 20.559 0.176319 20.3887 0.0692778 20.1183C-0.0378682 19.8479 -0.0177784 19.5231 0.121281 19.2778L10.8593 0.332697C10.9774 0.124229 11.1661 0.000976562 11.3669 0.000976562H38.7982C39.0344 0.000976562 39.2506 0.171272 39.3578 0.441702C39.4649 0.712131 39.4449 1.03686 39.3058 1.28216L28.5677 20.2273C28.4496 20.4358 28.2609 20.559 28.0601 20.559ZM1.86251 18.9461H27.7407L37.5645 1.61388H11.6862L1.86251 18.9461Z" fill="black"/>
<path d="M49.373 20.5582C49.1753 20.5582 48.9808 20.4386 48.8586 20.2149L38.5075 1.26981C38.3084 0.90529 38.3769 0.402334 38.6607 0.14642C38.9446 -0.109359 39.3361 -0.0214552 39.5352 0.343195L49.8863 19.2883C50.0854 19.6528 50.0169 20.1558 49.7331 20.4117C49.6234 20.5106 49.4975 20.5582 49.373 20.5582Z" fill="black"/>
<path d="M47.3802 50H30.4393C30.0927 50 29.8115 49.6389 29.8115 49.1936V24.8721C29.8115 24.4268 30.0927 24.0656 30.4393 24.0656H47.3802C47.7269 24.0656 48.008 24.4268 48.008 24.8721V49.1936C48.008 49.6389 47.7269 50 47.3802 50ZM31.0671 48.3871H46.7524V25.6785H31.0671V48.3871Z" fill="black"/>
<path d="M42.3974 50H35.4218C35.0751 50 34.7939 49.6388 34.7939 49.1935V38.3129C34.7939 35.3978 36.6403 33.0261 38.9096 33.0261C41.179 33.0261 43.0252 35.3978 43.0252 38.3129V49.1935C43.0252 49.6388 42.7441 50 42.3974 50ZM36.0496 48.3871H41.7696V38.3129C41.7696 36.2871 40.4866 34.639 38.9096 34.639C37.3326 34.639 36.0496 36.2871 36.0496 38.3129V48.3871V48.3871Z" fill="black"/>
<path d="M10.5083 15.4378C10.3619 15.4378 10.2147 15.3723 10.0958 15.2389C9.83461 14.946 9.80771 14.4366 10.0357 14.101L15.0809 6.67653C15.3088 6.34091 15.7055 6.30637 15.9667 6.59938C16.2279 6.89225 16.2548 7.40166 16.0268 7.73728L10.9816 15.1617C10.8574 15.3444 10.6833 15.4378 10.5083 15.4378Z" fill="#EB9309"/>
<path d="M16.4869 15.4378C16.3404 15.4378 16.1933 15.3723 16.0743 15.2389C15.8131 14.946 15.7862 14.4366 16.0142 14.101L21.0594 6.67653C21.2874 6.34091 21.684 6.30637 21.9452 6.59938C22.2064 6.89225 22.2333 7.40166 22.0053 7.73728L16.9601 15.1617C16.8359 15.3444 16.6618 15.4378 16.4869 15.4378Z" fill="#EB9309"/>
<path d="M22.4664 15.4378C22.3199 15.4378 22.1728 15.3723 22.0538 15.2389C21.7926 14.946 21.7657 14.4366 21.9937 14.101L27.0388 6.67651C27.2669 6.34103 27.6636 6.30635 27.9246 6.59936C28.1859 6.89224 28.2128 7.40165 27.9848 7.73727L22.9396 15.1617C22.8154 15.3444 22.6413 15.4378 22.4664 15.4378Z" fill="#EB9309"/>
<path d="M24.3725 41.9355H11.8163C11.4696 41.9355 11.1885 41.5743 11.1885 41.129V33.0645C11.1885 32.6192 11.4696 32.2581 11.8163 32.2581H24.3725C24.7191 32.2581 25.0003 32.6192 25.0003 33.0645V41.129C25.0003 41.5743 24.7191 41.9355 24.3725 41.9355ZM12.4441 40.3226H23.7446V33.871H12.4441V40.3226Z" fill="#EB9309"/>
</svg>
