<svg width="50" height="51" viewBox="0 0 50 51" fill="none" xmlns="http://www.w3.org/2000/svg">
<path d="M16.8526 26.8558L4.17285 21.1946C3.69334 20.9807 3.15332 21.3365 3.15332 21.8672C3.15332 22.3506 3.15332 38.1844 3.15332 38.5856C3.15332 39.117 3.46376 39.5989 3.94415 39.8134L16.2663 45.315C16.3601 45.3569 16.4599 45.3775 16.5594 45.3775C16.6982 45.3775 16.8363 45.3374 16.9561 45.2583C17.1619 45.1225 17.2859 44.8909 17.2859 44.6425C17.2859 44.2159 17.2859 28.0106 17.2859 27.5284C17.2858 27.2371 17.116 26.9734 16.8526 26.8558ZM15.8329 43.5146L4.60595 38.5021V27.5518L15.8329 32.5644V43.5146ZM15.8329 30.9575L4.60595 25.9448V22.995L15.8329 28.0076V30.9575Z" fill="black"/>
<path d="M24.9115 8.27727V6.63821C25.5281 6.68489 25.7398 6.98284 25.9975 6.98284C26.338 6.98284 26.4852 6.55442 26.4852 6.34026C26.4852 5.80002 25.5097 5.62317 24.9115 5.60452V5.36233C24.9115 5.24143 24.7551 5.12952 24.5987 5.12952C24.4237 5.12952 24.2858 5.24133 24.2858 5.36233V5.62317C23.3656 5.74426 22.5005 6.25637 22.5005 7.43909C22.5005 8.63108 23.4484 8.99426 24.2858 9.31086V11.1641C23.4761 11.071 23.1999 10.4656 22.8502 10.4656C22.5649 10.4656 22.335 10.8568 22.335 11.1175C22.335 11.639 23.1723 12.2444 24.2859 12.2723V12.533C24.2859 12.6541 24.4239 12.7658 24.5988 12.7658C24.7552 12.7658 24.9116 12.6541 24.9116 12.533V12.2444C25.9424 12.0767 26.6509 11.4155 26.6509 10.27C26.6508 9.00364 25.7304 8.58459 24.9115 8.27727ZM24.3594 8.07239C23.936 7.90471 23.6231 7.72776 23.6231 7.31809C23.6231 6.96418 23.8991 6.74065 24.3594 6.66624V8.07239ZM24.8379 11.1549V9.5345C25.2337 9.71155 25.5282 9.93499 25.5282 10.3913C25.5282 10.829 25.2428 11.071 24.8379 11.1549Z" fill="#EB9309"/>
<path d="M49.0788 30.8385C48.5699 30.8385 48.1575 31.1676 48.1575 31.5736V40.6967C48.1575 40.7654 48.1065 40.8278 48.0278 40.8555L25.9212 48.6376V24.6197L31.688 22.5896L48.1574 16.7919V28.1432C48.1574 28.5493 48.5697 28.8783 49.0786 28.8783C49.5875 28.8783 49.9999 28.5493 49.9999 28.1432C49.9999 27.7187 49.9998 15.5042 49.9998 15.663C49.9999 15.3702 49.778 15.1051 49.4462 14.9899L36.0084 10.3271C36.6456 5.57644 32.5629 1.43581 27.0873 0.516673C26.5893 0.432396 26.101 0.687279 25.9962 1.08464C25.8913 1.48191 26.21 1.87165 26.708 1.95525C33.7169 3.1321 36.6943 9.9739 31.8584 14.351H29.9155C35.6878 10.5949 32.4259 2.88982 24.7461 2.88982C17.1496 2.88982 13.7515 10.4843 19.6048 14.351H17.6338C12.8314 10.0032 15.7394 3.13562 22.7878 1.95466C23.2858 1.87126 23.6047 1.48152 23.5002 1.08425C23.3955 0.68679 22.9067 0.432298 22.4093 0.515892C16.7744 1.45993 12.7577 5.75349 13.5074 10.4952L0.553822 14.99C0.229852 15.1023 0.00636436 15.361 0.000856737 15.6532C0.000856737 15.6562 0 15.6592 0 15.6622V15.664V40.6967C0 41.3476 0.482223 41.9379 1.22844 42.2006L24.6281 50.4381C24.8572 50.5185 25.1309 50.5227 25.372 50.4381L48.7718 42.2007C49.5179 41.9378 50 41.3475 50 40.6968V31.5737C50.0001 31.1676 49.5877 30.8385 49.0788 30.8385ZM24.7461 4.35984C27.5042 4.35984 29.9072 5.77029 30.7255 7.8696C32.4034 12.1734 26.6848 15.7643 21.8923 13.8012C16.0405 11.4013 18.2212 4.35984 24.7461 4.35984ZM1.84236 40.6967V16.7919C2.46986 17.0127 23.5697 24.4405 24.0786 24.6197V48.6377L1.97209 40.8554C1.89327 40.8278 1.84236 40.7654 1.84236 40.6967ZM24.9999 23.3372L3.21743 15.6689L13.8989 11.9626C14.2175 12.8033 14.6925 13.6077 15.3149 14.351H14.784C14.2753 14.351 13.8628 14.68 13.8628 15.086C13.8628 15.4921 14.2753 15.8211 14.784 15.8211C15.4754 15.8211 33.4188 15.8211 34.7122 15.8211C35.2211 15.8211 35.6334 15.4921 35.6334 15.086C35.6334 14.68 35.2211 14.351 34.7122 14.351H34.1772C34.838 13.5618 35.3322 12.7034 35.6501 11.806L46.7828 15.669L24.9999 23.3372Z" fill="black"/>
<path d="M13.9879 34.6745L6.97679 31.5442C6.6096 31.3806 6.18095 31.5487 6.01902 31.9201C5.85709 32.2916 6.02336 32.7255 6.39035 32.8894L13.4014 36.0197C13.7704 36.1841 14.198 36.0137 14.3592 35.6438C14.5211 35.2722 14.3549 34.8385 13.9879 34.6745Z" fill="#EB9309"/>
<path d="M13.9879 37.983L6.97679 34.8526C6.6097 34.6891 6.18095 34.8571 6.01902 35.2285C5.85709 35.6 6.02336 36.0339 6.39035 36.1977L13.4014 39.328C13.7687 39.4921 14.1974 39.3235 14.3592 38.9522C14.5211 38.5807 14.3549 38.1469 13.9879 37.983Z" fill="#EB9309"/>
</svg>
