<svg width="185" height="65" viewBox="0 0 185 65" fill="none" xmlns="http://www.w3.org/2000/svg">
<path d="M75.768 48.407C73.7947 48.407 72.2283 47.9877 71.069 47.149C69.9097 46.3103 69.071 45.1263 68.553 43.597C68.0597 42.043 67.813 40.2177 67.813 38.121V28.057C67.813 25.911 68.0597 24.061 68.553 22.507C69.0463 20.953 69.9097 19.769 71.143 18.955C72.401 18.1163 74.1277 17.697 76.323 17.697C78.3703 17.697 79.9983 18.0423 81.207 18.733C82.4157 19.4237 83.279 20.4227 83.797 21.73C84.3397 23.0127 84.611 24.579 84.611 26.429V27.983H79.394V26.281C79.394 25.319 79.32 24.4927 79.172 23.802C79.0487 23.1113 78.7773 22.5933 78.358 22.248C77.9633 21.878 77.3097 21.693 76.397 21.693C75.435 21.693 74.732 21.9273 74.288 22.396C73.8687 22.8647 73.5973 23.4813 73.474 24.246C73.3753 25.0107 73.326 25.8493 73.326 26.762V39.305C73.326 40.341 73.4123 41.2413 73.585 42.006C73.7577 42.7707 74.0783 43.3627 74.547 43.782C75.0157 44.1767 75.6817 44.374 76.545 44.374C77.433 44.374 78.1113 44.152 78.58 43.708C79.0487 43.264 79.3693 42.6473 79.542 41.858C79.7393 41.0687 79.838 40.1313 79.838 39.046V36.234H76.619V32.793H84.759V48H81.244L80.837 45.04C80.4423 46.0267 79.838 46.8407 79.024 47.482C78.2347 48.0987 77.1493 48.407 75.768 48.407ZM87.408 48L93.402 18.03H99.248L105.242 48H100.173L98.989 41.081H93.772L92.551 48H87.408ZM94.327 37.603H98.397L96.362 25.023L94.327 37.603ZM108.259 48V18.03H113.661V48H108.259ZM118.301 48V18.03H122.112L129.401 35.124V18.03H133.915V48H130.289L122.963 30.092V48H118.301ZM138.611 48V18.03H144.013V48H138.611ZM156.793 48.407C154.671 48.407 152.982 48.0123 151.724 47.223C150.466 46.4337 149.565 45.299 149.023 43.819C148.48 42.339 148.209 40.5877 148.209 38.565V27.354C148.209 25.3313 148.48 23.6047 149.023 22.174C149.565 20.7187 150.466 19.6087 151.724 18.844C152.982 18.0793 154.671 17.697 156.793 17.697C158.963 17.697 160.665 18.0793 161.899 18.844C163.157 19.6087 164.057 20.7187 164.6 22.174C165.167 23.6047 165.451 25.3313 165.451 27.354V38.602C165.451 40.6 165.167 42.339 164.6 43.819C164.057 45.2743 163.157 46.409 161.899 47.223C160.665 48.0123 158.963 48.407 156.793 48.407ZM156.793 44.374C157.705 44.374 158.371 44.1767 158.791 43.782C159.235 43.3873 159.531 42.8447 159.679 42.154C159.827 41.4633 159.901 40.711 159.901 39.897V26.096C159.901 25.2573 159.827 24.505 159.679 23.839C159.531 23.173 159.235 22.655 158.791 22.285C158.371 21.8903 157.705 21.693 156.793 21.693C155.929 21.693 155.276 21.8903 154.832 22.285C154.388 22.655 154.092 23.173 153.944 23.839C153.796 24.505 153.722 25.2573 153.722 26.096V39.897C153.722 40.711 153.783 41.4633 153.907 42.154C154.055 42.8447 154.351 43.3873 154.795 43.782C155.239 44.1767 155.905 44.374 156.793 44.374ZM168.321 48V44.485L176.387 21.804H168.765V18.03H181.9V20.842L173.538 44.226H181.937V48H168.321Z" fill="black"/>
<path d="M57.8287 26.138L58 25.9899L57.9548 25.3021L57.7873 25.2027L57.7215 24.8617L57.2096 23.8055V23.4411L57.1249 23.0046L56.1594 22.6012L55.6061 22.6227L55.1977 22.7825L54.921 22.42L54.5992 22.3577L54.2774 22.0186L53.8558 21.8179L53.5547 21.7809L52.8903 21.1183L52.3558 20.4188L52.098 20.3603L51.7348 20.0368L51.4148 20.0602L50.5209 19.4561H50.1087L49.6627 19.2749L49.386 19.4171H48.9569L48.701 19.2963L48.4243 19.4171L48.2926 19.5945L48.1232 19.4347L47.7148 19.158L47.6508 19.2729L47.4795 19.1385L47.4155 19.3139V19.4542L47.1803 19.2729L47.1408 19.1385L46.962 19.0878L47.0147 19.2301L46.93 19.2846L46.4915 19.121L46.3466 19.1541L45.9777 19.0859L45.1628 18.7215L44.8503 18.741L44.8372 18.8248L44.9012 18.9845L44.8315 19.0605L44.6603 18.9768L44.585 19.0138L44.5361 19.1287L44.2575 19.2535L44.154 19.3977L44.1164 19.7172L43.9639 19.4795L43.8773 19.2691L43.7287 19.3275L43.7531 19.5867L43.5066 20.0251V20.3973L43.42 20.0485L43.516 19.6978L43.4614 19.3879L43.6139 18.9397L43.7437 18.8287L43.6346 18.741L43.4012 18.7293L43.7098 18.4L43.3052 17.9888L43.0681 17.6419L42.8479 17.6634L42.5148 17.6146L42.3247 17.8407L42.1308 17.9303L42.0349 17.7199L41.8918 17.6419L41.8316 17.4412L41.6622 17.3126L41.4251 17.334L41.3084 17.1898L41.0995 17.1197L40.9828 17.26V17.1411L40.8209 17.0476L40.7174 16.8508L40.5349 16.9209L40.2055 16.8293L39.767 16.5936L39.639 16.5741L39.5656 16.6968L39.2984 16.5273L39.1102 16.5448L39.0631 16.7163L38.9352 16.7261L38.8618 16.537L38.5211 16.5253L38.2294 16.6734L38.0694 16.9463L38.0939 17.1021L37.7702 17.4061L37.3543 17.6322L36.8217 17.9264L36.5657 18.2265L36.4076 18.6143L36.3399 18.9962L36.2025 19.1931L35.9597 19.4327L35.9748 19.5984L36.0256 19.8848L35.9691 20.409L35.8712 20.0894L35.6718 19.7796L35.6812 19.5516L35.8844 19.3061L36.1253 19.121L36.0914 18.741L36.2119 18.4194L36.1874 18.2519L36.0086 18.246L35.6605 18.3629L35.2803 18.2558L34.9472 18.2733L34.6799 18.3415L34.4955 18.1934L34.7082 18.2148L34.9603 18.0414L35.2238 17.9868L35.6699 18.0589L35.9145 18.0044L36.1517 17.7316L36.2608 17.7218L36.4001 17.8251L36.5507 17.7764L36.8085 17.6361L37.2432 17.4958V17.1781L37.6234 16.7592V16.4552L37.7758 16.2545L37.7965 16.0148L37.3919 15.933L37.0701 15.6972H36.7727L36.3418 15.933L35.9785 15.9544L35.4666 15.7556L34.9095 15.7186L34.5049 16.1142L34.5294 16.274L34.6592 16.3695L34.7458 16.5039L34.552 16.5253L34.4315 16.5838L34.3242 16.8235L34.2508 16.613L34.1097 16.5643L33.7916 16.6832L33.4491 17.1294L32.988 17.6224L33.3324 17.1743L33.3211 16.8781L33.3964 16.7222L33.4284 16.5234H33.2797L32.9786 16.7475L32.8299 17.0749L32.6812 17.4334L32.4366 17.5815L32.6662 17.1587L32.7113 16.8293L33.2364 16.2175L33.3625 15.8102L33.5601 15.5588L33.8462 15.4127L34.1548 15.2042L34.3769 15.1145L34.6536 14.7248L35.348 14.0623L35.3913 13.9083L35.5287 13.8031L35.3819 13.6258L35.4327 13.4328L35.5287 13.3529L35.5362 13.0821L35.2615 12.8931L34.9509 12.9125L34.855 13.0119L34.7157 12.7956L34.5237 12.2773L34.1906 11.5095L33.8914 11.1061L33.6806 10.5761L33.6881 10.2916L33.6147 9.99932L33.4924 9.89214L33.4453 9.62128L33.2647 9.28806L33.1894 9.32898L33.2101 9.54723L33.0934 9.71871L32.7546 9.93306L32.7565 9.92332L32.7377 9.93501L32.6248 10.1006L32.2615 10.5196L31.8757 10.9853L31.8682 11.2367L31.5859 11.8135L31.3469 12.1799L31.1643 12.5111L30.9102 12.552L30.7522 12.6612L30.6919 12.8853L30.4303 13.0626L30.2591 13.01L30.2421 12.6436L30.1349 12.5949L30.0991 12.4819L29.9354 12.4663L29.7265 12.5443L29.5646 12.7099L29.3143 12.6651L29.1073 12.4507L29.1092 12.3143L29.032 12.252L28.9379 12.0318L28.8871 11.8973L28.6857 11.8583L28.3959 11.6011L28.0101 11.5836L27.7259 11.7102L27.1142 11.7317L26.7811 11.6537L26.4894 11.831L26.4423 12.0824L26.7152 12.3338L26.7867 12.4975L26.9241 12.7976L26.8714 12.897L26.623 12.9125L26.2447 12.8132L26.1544 12.7469H26.0321L26.0057 12.7352L26.0151 12.743H25.5352L25.268 12.7839L25.1513 12.6631L24.7165 12.6846L24.406 12.8034L24.2347 13.2419L23.6287 13.2243L23.3163 13.314L23.2768 13.4465L23.0698 13.6764L22.731 13.7057L22.6877 13.616L22.4845 13.6647L22.3038 13.883L22.0667 13.7914L21.4851 13.3237L21.2687 13.0723L21.2593 12.8736L20.9374 12.5774L20.6721 12.3143L20.642 12.0337L20.7041 11.8486L20.6288 11.7083L20.674 11.4589L20.7794 11.2581L20.7605 10.9619L21.0504 10.4884L21.1445 10.1104L21.4098 9.7986L21.4004 9.64661L21.1256 9.66999L20.9864 9.46539L20.8904 9.26857L20.5817 9.28806L20.3239 9.16919L20.4556 8.99771L20.6326 8.7288V8.35855L20.3898 8.07015L20.0567 8.04092L19.8967 8.1403L19.7781 8.01754L19.6219 8L19.6539 8.29619L19.5146 8.62552L18.743 9.13217L18.2631 9.17309L17.6006 9.43031L17.3541 9.31924L16.9419 9.36211L16.4582 9.76158L15.9896 9.90773L15.8296 9.81225L15.1691 9.89019L14.659 9.92137L14.1979 9.68169L13.7425 9.61348L13.3134 9.49072L13.5072 9.83173L13.8178 9.93891L14.1358 10.2195L14.2412 10.4787L13.8253 11.0789L13.9834 11.3614L13.8893 11.8194L14.5743 12.0298L15.0411 11.9772L15.5097 12.0668L15.5342 12.3494L15.1916 12.4994L14.5009 12.63L14.2506 12.8775L14.1132 13.236L13.3567 13.6063L13.1101 13.8771L12.602 14.1909L12.2576 14.5864L11.6497 14.6137L11.3072 14.5689L10.7162 14.1421L10.1497 13.7739L9.76767 13.8167L9.7752 13.4367L9.71685 13.1327L9.46843 12.8502L9.3875 12.6358L8.98287 12.7411L8.69304 13.0412L8.49919 13.0665L8.33922 12.9281H8.0475L7.86683 13.1172L6.19184 13.1288L6.09585 13.5809L6.23512 13.9122L6.80161 14.0486L7.01616 14.4169L6.85619 14.5884L7.02745 14.754L6.95029 14.9879L6.59835 14.7696L5.60277 15.0872L5.64793 15.8453L5.90389 16.1551L6.45532 16.5507L6.82043 17.1567L6.80161 17.6263L6.78655 17.8329L5.95658 20.7305L5.71004 21.4925L5.74392 21.6308L5.61217 21.8276L5.29411 21.7477L5.32611 21.6581L4.99487 21.4574L4.87819 21.4866H4.58836L4.46414 21.4379L4.35499 21.6561L3.34246 21.9718L2.58401 22.1199L2.39016 22.2973L2.22266 22.3499L1.91025 22.6383L1.55831 22.7922L1.29483 22.952L1.33435 23.3106L1.18567 23.521L1.25154 23.7412L0.845026 24.1192L0.984295 24.5986L1.1198 24.85L0.875138 25.0643L0.66247 25.0273L0.248426 25.2787L0.225842 25.5554L0.0752807 25.7074L0.171264 25.8984L0.118567 26.2082L0 26.4654L0.107275 26.6973L0.0319943 26.9078L0.43851 27.2878L1.16497 28.3829L0.790447 28.8272L1.71075 28.7512L2.14362 28.8272L2.46544 29.2656L2.56331 29.6554L3.19755 29.6748L3.95412 29.7216L4.58083 29.1857L5.10968 28.9012L5.25836 29.0474L5.18872 29.3553L5.08145 29.4585L5.06827 29.9535L5.15108 30.7719L5.1699 31.0974L5.34681 31.2591L5.64229 31.2123L5.92835 31.1344L6.2483 31.1168L6.41015 31.0974L6.55695 31.1636L6.60023 31.1792H7.54124L7.96658 31.1967L8.39568 30.9785H8.63281L8.94899 30.7388H9.3141L9.74132 30.6199L9.99539 29.9925L10.7049 29.5755L11.1942 29.4956L11.6647 29.2754H11.9884L12.2858 29.4761L12.6283 29.2754L12.7996 29.4157L12.7563 29.7353L12.9276 30.238L12.6942 30.6394L12.8843 31.2747L12.7563 31.5572L13.016 32.0756L13.3548 32.2159L13.4621 32.6387L13.8065 32.7946L14.2751 33.0752L14.5988 33.3558L14.723 33.2136L15.3441 33.0752L15.8579 33.5546L16.2418 33.4552L16.7782 33.997L17.0116 33.9775L17.6533 34.1782L18.0561 34.3146L18.1464 34.718L18.4438 34.7998L18.8277 34.9986L19.6821 34.9206L20.2769 35.2402L20.4067 35.4799L20.3239 36.121L20.4556 36.6413L20.2787 36.9609L20.8377 37.8416L20.7963 38.4827L21.1802 38.4886C21.2517 38.4145 21.3251 38.3405 21.3967 38.2684C21.8766 37.789 22.3452 37.2999 22.8251 36.8206C23.5497 36.0742 24.5886 35.3376 25.0685 34.4042C25.3922 33.7962 25.3037 33.0616 25.4693 32.3971C25.7818 31.1948 27.5 27.7515 27.5 27.7515C27.5 27.7515 28.2491 25.8029 28.3601 23.7958C28.3827 23.3067 28.4279 22.4415 28.9511 22.231C29.3632 22.0673 29.8112 22.3947 30.0125 22.7552C30.2365 23.1644 30.2911 23.6535 30.3249 24.1095C30.3814 24.8909 30.2252 25.6606 29.9899 26.407C29.7547 27.1319 29.5759 28.2387 30.1461 28.8467C30.3475 29.0688 30.6486 29.1624 30.9385 29.1721C31.8211 29.2072 32.3895 28.6011 33.0821 28.1568C33.7276 27.7476 34.4654 27.5041 35.0902 27.0831C35.7376 26.6291 36.3737 26.1497 37.0212 25.7054C37.6347 25.2962 38.1824 24.7253 38.8185 24.3862C39.2758 24.129 39.9571 23.9322 40.2921 24.4914C40.6384 25.0858 40.1133 25.6567 39.6786 25.9958C38.9653 26.5317 38.2162 27.0695 37.503 27.619C36.9666 28.0399 36.4547 28.4823 35.8637 28.833C35.5607 29.0201 34.9923 29.1701 35.0488 29.6495C35.0601 29.7664 35.1279 29.8834 35.2389 29.9184C35.3273 29.9418 35.4196 29.9067 35.5061 29.8834C35.9409 29.7197 36.321 29.4157 36.7351 29.1955C37.1473 28.9733 37.5839 28.7746 38.0186 28.6011C38.8674 28.2504 39.7482 27.9464 40.5631 27.5255C40.9207 27.3521 41.2331 27.1299 41.5775 26.9311C41.8448 26.7577 42.1798 26.5921 42.5035 26.6759C42.9947 26.8045 43.2732 27.4339 42.9947 27.8762C42.7707 28.2621 42.3699 28.5173 42.0123 28.7278C41.0637 29.3007 40.07 29.8132 39.0763 30.2809C38.2953 30.655 37.4804 30.8986 36.7106 31.2844C36.5883 31.3546 35.5043 31.9022 35.8731 32.0892C35.9729 32.136 36.0726 32.1009 36.1743 32.0658C36.7991 31.8573 37.4352 31.6566 38.0713 31.4949C38.7413 31.3312 39.4226 31.2279 40.0681 31.0272C40.5142 30.9122 40.9847 30.8304 41.4288 30.7719C42.0198 30.6901 43.4595 30.4796 43.6609 31.3312C43.8604 32.1711 42.1647 32.5569 41.6735 32.6855C40.501 32.9661 39.2852 33.1279 38.1033 33.3032C37.6121 33.3851 37.0983 33.5137 36.6297 33.7008C36.385 33.7943 35.8374 33.9814 35.8374 34.3302C35.8487 35.0648 38.0017 34.9031 39.2288 34.9148C39.7651 34.9265 40.3674 34.8914 40.8812 35.1018C41.2613 35.2538 41.5851 35.7313 41.2933 36.1405C41.1371 36.3509 40.8473 36.4094 40.6139 36.4445C39.7764 36.5731 38.8844 36.4094 38.0582 36.2808C36.9308 36.1073 35.7583 36.4211 34.6649 36.7134C34.0626 36.8771 33.5488 37.1109 33.0125 37.448C32.4893 37.7637 31.9755 38.1242 31.3826 38.2996C30.6129 38.5451 29.8093 38.3463 29.0941 38.7322C28.3676 39.118 27.8557 39.8059 27.3081 40.4002C26.5929 41.1836 25.8683 41.9533 25.1532 42.7347C24.8916 43.0173 24.6318 43.2998 24.3702 43.5804L24.3834 43.6408L24.182 43.8961L24.3213 44.0403L24.231 44.3404L24.598 44.6015L24.6187 45.0185L24.9179 45.4375L24.7692 46.2813L24.8502 46.6203L24.7429 46.9204L24.8502 47.2166L25.4091 47.1796L25.6406 47.2809L26.3275 47.24L26.7566 47.3803L27.4398 47.1231L27.8049 47.3628L28.0816 47.4427L28.187 47.7642L28.5596 49.2666L28.8156 49.8005L29.0847 49.8707L29.6719 49.5706L30.0031 49.6894L30.2252 49.8824L30.436 49.9194L30.2967 50.1435L30.2591 51.4491L30.2007 51.603L30.1631 51.6517V51.8213L30.1217 51.9674L30.1085 52.135L30.3663 51.9811L31.0514 52.0649L31.0721 52.3494L31.3506 52.9378L31.3299 53.4075L31.3902 53.9434L31.4447 54.4442L31.3582 54.6488L31.0589 54.6332L30.6976 54.8163L30.6449 54.9255L30.4303 55.095L30.3362 55.0443L29.7265 55.4243L29.6079 55.6075L29.3726 55.6601L28.8156 56.0947L28.6368 56.1531L28.6161 56.4961L28.4128 56.5487L28.2303 56.5234L27.7635 57.0651L27.6769 57.2716L27.6901 57.5834L27.4756 57.6419L27.357 57.8114L27.0578 58.3259L26.8451 58.5285L26.5967 58.9105V59.0391L26.3219 59.2164L26.2824 59.347L26.5026 59.3509L26.6625 59.4288L27.4097 59.2164L27.7221 59.4093L28.0646 59.8478L28.3639 59.9666L28.5427 60.3486L28.8965 60.8844H29.0659L29.3501 60.5999L29.5044 60.6136L29.8431 61.1319L30.2534 61.3073L30.6054 61.3775L30.9422 61.699L30.9648 62.0809L31.249 62.0166L31.8287 62.2582L32.1712 62.6558L32.5363 63.1624L32.8675 63.3807L32.7998 63.7723L32.525 64.129L32.6605 64.5499L32.7151 64.6512L32.7527 64.7233L32.9259 64.9396L33.0068 65L33.5677 64.5693L33.7615 64.1504L34.0062 63.178L34.232 62.5213L34.3299 62.3908L34.2 62.2368L33.9855 61.9094L34.0909 61.6308L34.3054 61.5275L34.3148 61.3502L34.5595 61.0871V60.8883L34.7119 60.9994L34.9133 61.0306L35.1598 60.7617L35.1881 60.4811L35.2859 60.3914L35.3104 60.0719L35.4139 59.9413H35.5682L35.6718 59.6704L35.5984 59.4756L35.4365 59.3119L35.4572 58.8949L35.3311 58.7838L35.4798 58.8228L35.6473 59.1521L36.003 59.5087H36.1423L36.2891 59.4327L36.3888 59.5223L36.4208 59.762L36.306 59.7913L36.1648 60.2687L35.8223 60.8162L35.5137 60.8279L35.4723 61.1787L35.3612 61.3677L35.2671 61.3365L34.9603 61.4944L34.7364 61.6775L34.7119 61.8256L34.4635 61.8685L34.3468 61.9737L34.3581 62.1277L34.6461 62.2056L35.5871 61.5139L36.067 61.0111L36.7633 59.9004L37.0268 59.3372L37.2922 58.6201L37.9659 57.4158L38.6284 56.6793L38.7394 56.4571L38.6736 56.3772L38.7037 56.1882L38.843 56.1473L38.9521 55.8374L39.1497 55.7303L39.0782 55.4789L39.1497 55.2977L39.0782 55.2158L38.9596 55.1281L38.9841 54.8495L38.698 54.4675V54.3019L38.7526 54.1324L38.698 53.9511L38.6039 53.5556L38.4534 53.1288L38.5701 53.0333L38.9427 52.9593L38.8448 52.7352L38.666 52.63L39.018 52.552L39.0255 52.285L38.666 52.1292L38.9596 52.0512L39.1572 51.7979L39.3059 51.9051L39.7783 51.4939L40.055 51.3244L40.0437 51.188L40.4389 50.8703L40.9019 50.5839L41.5041 49.9389L42.0405 49.8746L42.3284 49.6193L42.6503 49.3738H42.9476L43.1415 49.5277L43.3654 49.5784L43.3748 49.3757L43.5988 49.0094L44.2274 48.6391L44.4721 48.569V48.4579L44.3234 48.3702L44.1201 48.3234L44.026 48.1617L44.2481 48.111L44.632 47.8869L44.8579 47.9493L45.1101 47.9318L45.2945 47.7954L45.5448 47.809L45.5279 47.922L45.1665 48.111L44.7939 48.1773L44.7205 48.2611L44.8466 48.3507L45.415 48.152L46.1019 47.8947L46.0454 47.7895L46.2299 47.6414L46.3992 47.6687L46.3371 47.8207C46.3371 47.8207 46.3578 48.0565 46.3804 48.0662C46.4087 48.0779 46.8171 48.1247 46.8171 48.1247L47.0542 47.998H47.4588L47.9557 48.0526L48.2568 47.8577L48.2606 47.7174L48.1834 47.6473L48.2286 47.5089L48.8948 47.0841L49.4575 46.8951L49.7492 46.7314L49.8339 46.5619L49.7587 46.4547L49.5083 45.9285L49.6853 45.5661L49.8979 45.3284L49.9111 45.0614L50.0466 44.9503L50.2931 44.7886L50.3458 44.508L50.2724 44.471L50.6865 43.8415L51.253 43.2199L51.2605 42.9413L51.1438 42.0605L51.0535 41.8909L51.2285 41.3648L51.3828 41.1505L51.4129 40.9751L51.8552 40.6419L51.9136 40.4782L51.7988 39.9676L52.0378 39.348L51.9738 38.8666L52.0585 38.5081L52.0397 38.3093L52.1639 37.7871L52.0171 35.9066L52.0133 35.5598L52.13 35.2967L52.1319 35.0453L52.0077 35.1739L51.7724 35.0161V34.8563L51.9813 34.5484L51.9286 34.2386L51.9813 34.0262L52.1752 33.9755L52.2184 33.6462L52.019 33.3344L51.62 33.1668L51.7272 33.1259L51.7762 33.0031L51.859 33.1571L52.0886 33.2857L52.3031 33.3597L52.3916 33.0538L52.5911 33.0733L52.6777 33.2389L52.8301 33.311L52.6682 33.5195L52.4537 33.6676L52.4048 33.8391L52.5497 33.8469L52.8376 33.5975L53.2347 33.4065L53.7354 32.6875L53.9631 32.1594L54.0327 31.8359L54.2266 31.682L54.4185 31.2006L54.635 30.7934L55.4141 30.2906L55.5082 30.0548L55.7472 29.9808L55.9166 29.7216L56.5791 29.1663L57.1663 28.4277L57.3131 28.227L57.6801 27.4768L57.7723 27.1474L57.9548 26.9117V26.6661L57.7629 26.3972L57.8287 26.138Z" fill="url(#paint0_linear_1423_18)"/>
<defs>
<linearGradient id="paint0_linear_1423_18" x1="18.2093" y1="18.1786" x2="45.3721" y2="51.9575" gradientUnits="userSpaceOnUse">
<stop offset="0.424702" stop-color="#7FB432"/>
<stop offset="0.466538" stop-color="#EB9309"/>
</linearGradient>
</defs>
</svg>
