<svg width="9" height="8" viewBox="0 0 9 8" fill="none" xmlns="http://www.w3.org/2000/svg">
<path d="M6.60931 0C6.12094 0 5.67319 0.155823 5.27853 0.46315C4.90016 0.757788 4.64825 1.13306 4.49994 1.40595C4.35163 1.13304 4.09972 0.757788 3.72135 0.46315C3.32669 0.155823 2.87894 0 2.39056 0C1.0277 0 -6.10352e-05 1.12242 -6.10352e-05 2.61087C-6.10352e-05 4.2189 1.28214 5.3191 3.22322 6.98464C3.55285 7.26749 3.92647 7.58809 4.31481 7.93002C4.36599 7.97515 4.43174 8 4.49994 8C4.56814 8 4.63388 7.97515 4.68507 7.93004C5.07344 7.58805 5.44705 7.26747 5.77687 6.98446C7.71774 5.3191 8.99994 4.2189 8.99994 2.61087C8.99994 1.12242 7.97218 0 6.60931 0Z" fill="#EB9309"/>
</svg>
