<svg width="41" height="36" viewBox="0 0 41 36" fill="none" xmlns="http://www.w3.org/2000/svg">
<path d="M30.1093 0.000244141C27.8845 0.000244141 25.8448 0.701448 24.0468 2.08442C22.3232 3.41029 21.1756 5.09902 20.4999 6.32701C19.8243 5.09894 18.6767 3.41029 16.953 2.08442C15.1551 0.701448 13.1154 0.000244141 10.8906 0.000244141C4.68195 0.000244141 -6.10352e-05 5.05116 -6.10352e-05 11.7491C-6.10352e-05 18.9853 5.84108 23.9362 14.6838 31.4311C16.1854 32.7039 17.8875 34.1466 19.6566 35.6853C19.8897 35.8884 20.1892 36.0002 20.4999 36.0002C20.8106 36.0002 21.1101 35.8884 21.3433 35.6854C23.1126 34.1465 24.8145 32.7039 26.3171 31.4303C35.1588 23.9362 40.9999 18.9853 40.9999 11.7491C40.9999 5.05116 36.3179 0.000244141 30.1093 0.000244141Z" fill="#7FB432"/>
</svg>
