<svg width="47" height="41" viewBox="0 0 47 41" fill="none" xmlns="http://www.w3.org/2000/svg">
<path d="M34.5156 0C31.9652 0 29.627 0.798593 27.566 2.37365C25.59 3.88366 24.2745 5.80694 23.5 7.20548C22.7255 5.80685 21.41 3.88366 19.434 2.37365C17.373 0.798593 15.0348 0 12.4844 0C5.36718 0 0 5.75243 0 13.3807C0 21.6219 6.69594 27.2604 16.8327 35.7963C18.5541 37.2459 20.5052 38.889 22.5332 40.6413C22.8005 40.8726 23.1438 41 23.5 41C23.8562 41 24.1995 40.8726 24.4668 40.6414C26.495 38.8888 28.446 37.2458 30.1684 35.7954C40.3041 27.2604 47 21.6219 47 13.3807C47 5.75243 41.6328 0 34.5156 0Z" fill="black"/>
</svg>
