<svg width="1009" height="727" viewBox="0 0 1009 727" fill="none" xmlns="http://www.w3.org/2000/svg">
<mask id="mask0_1425_25" style="mask-type:alpha" maskUnits="userSpaceOnUse" x="0" y="0" width="1009" height="727">
<rect width="1009" height="727" fill="#C4C4C4"/>
</mask>
<g mask="url(#mask0_1425_25)">
<path d="M655.514 -295.856L998.536 47.1659L414.532 631.169C319.81 725.892 166.234 725.892 71.5106 631.169V631.169C-23.2122 536.446 -23.2122 382.87 71.5107 288.147L655.514 -295.856Z" fill="black"/>
<path d="M897.688 -449L1292.85 -53.8341L735.648 503.372C634.502 604.517 470.512 604.518 369.366 503.372L340.482 474.487C239.336 373.341 239.336 209.352 340.482 108.206L897.688 -449Z" fill="black"/>
<path d="M1010.54 191.174C1055.41 146.311 1128.14 146.311 1173.01 191.174C1217.87 236.038 1217.87 308.776 1173.01 353.639L834.039 692.607C789.176 737.471 716.438 737.471 671.574 692.607C626.711 647.744 626.711 575.006 671.574 530.142L1010.54 191.174Z" fill="#EB9309"/>
</g>
</svg>
