<svg width="763" height="678" viewBox="0 0 763 678" fill="none" xmlns="http://www.w3.org/2000/svg">
<path d="M558.922 1.5C517.502 1.5 479.519 14.7055 446.067 40.7206C415.118 64.789 394.184 95.1942 381.5 117.988C368.816 95.1928 347.882 64.7891 316.933 40.7206C283.481 14.7055 245.498 1.5 204.078 1.5C88.4975 1.5 1.5 96.5805 1.5 222.313C1.5 290.309 28.6654 347.509 76.1745 405.154C123.628 462.731 191.488 520.881 273.045 590.769L273.138 590.849L273.153 590.861C300.875 614.618 332.288 641.538 364.938 670.248C369.517 674.28 375.399 676.5 381.5 676.5C387.602 676.5 393.484 674.28 398.063 670.249C430.721 641.53 462.138 614.607 489.88 590.834L489.973 590.754C571.521 520.874 639.377 462.727 686.828 405.152C734.335 347.509 761.5 290.309 761.5 222.313C761.5 96.5805 674.503 1.5 558.922 1.5Z" stroke="#EB9309" stroke-width="3"/>
</svg>
