<svg width="36" height="39" viewBox="0 0 36 39" fill="none" xmlns="http://www.w3.org/2000/svg">
<g clip-path="url(#clip0_899_946)">
<path d="M30.5848 22.6566C30.5819 21.4466 30.2981 20.2575 29.757 19.178L30.9997 17.9293C31.9313 16.9932 31.9313 15.4699 30.9997 14.5337C30.535 14.0668 29.925 13.8328 29.3146 13.8317C29.3137 13.1916 29.0653 12.59 28.6148 12.1373C28.1499 11.6702 27.5394 11.4362 26.9286 11.4353C26.9277 10.8216 26.6949 10.2081 26.2299 9.7409C25.7796 9.28852 25.1813 9.03891 24.5447 9.03778C24.5435 8.39818 24.2952 7.79694 23.845 7.34449C23.3937 6.89099 22.7936 6.64124 22.1554 6.64124C21.5171 6.64124 20.917 6.89099 20.4658 7.34449L18.001 9.82123L16.6295 8.44304C16.1781 7.98953 15.5781 7.73978 14.9398 7.73978C14.3015 7.73978 13.7015 7.98953 13.2502 8.44304C12.7997 8.89577 12.5514 9.49736 12.5504 10.1375C11.9401 10.1386 11.33 10.3725 10.8653 10.8394C10.415 11.2919 10.1667 11.8931 10.1655 12.5327C9.52896 12.5339 8.93061 12.7835 8.48034 13.2359C7.71099 14.009 7.57768 15.1821 8.07893 16.0947C7.7337 16.2081 7.40908 16.4018 7.13514 16.677C6.20352 17.6132 6.20352 19.1365 7.13514 20.0727L8.1304 21.0727L0.223349 29.018C-0.0512157 29.2939 -0.0512157 29.7412 0.223349 30.0172C0.360667 30.1551 0.540593 30.2241 0.720519 30.2241C0.900445 30.2241 1.08044 30.1551 1.21769 30.0172L6.57779 24.6312L11.5989 29.6766L3.55645 37.7579C3.28188 38.0338 3.28188 38.4811 3.55645 38.7571C3.69377 38.895 3.87369 38.964 4.05362 38.964C4.23354 38.964 4.41354 38.895 4.55079 38.7571L15.4212 27.8342C15.6214 27.633 15.8494 27.4699 16.096 27.3473L17.7973 28.4732C18.9225 29.2179 20.2943 29.5088 21.6169 29.2936L31.0707 38.7931C31.2081 38.9311 31.388 39.0001 31.5679 39.0001C31.7478 39.0001 31.9278 38.9311 32.0651 38.7931C32.3396 38.5172 32.3396 38.0699 32.0651 37.7939L26.5798 32.2822L27.2429 31.6159C27.5175 31.34 27.5175 30.8926 27.2429 30.6167C26.9684 30.3408 26.5232 30.3408 26.2485 30.6167L25.5854 31.283L24.0329 29.7229L29.8306 23.8971L31.3832 25.4572L30.7216 26.1221C30.447 26.398 30.447 26.8453 30.7216 27.1213C30.8589 27.2592 31.0388 27.3282 31.2187 27.3282C31.3987 27.3282 31.5787 27.2592 31.7159 27.1213L32.3775 26.4565L34.7994 28.89C34.9367 29.0279 35.1167 29.097 35.2966 29.097C35.4765 29.097 35.6565 29.0279 35.7938 28.89C36.0683 28.6141 36.0683 28.1668 35.7938 27.8908L30.5848 22.6566ZM21.4601 8.34364C21.6458 8.15705 21.8927 8.05425 22.1554 8.05425C22.418 8.05425 22.6649 8.15705 22.8506 8.34364C23.0364 8.53023 23.1386 8.77835 23.1386 9.04223C23.1386 9.30618 23.0363 9.55431 22.8506 9.7409L21.3055 11.2934C21.0309 11.5693 21.0309 12.0167 21.3055 12.2927C21.5801 12.5686 22.0253 12.5686 22.2999 12.2927L23.845 10.7401C24.0307 10.5535 24.2776 10.4507 24.5403 10.4507C24.8029 10.4507 25.0499 10.5535 25.2356 10.7401C25.619 11.1254 25.619 11.7521 25.2356 12.1374L22.8762 14.5081C22.6016 14.784 22.6016 15.2314 22.8762 15.5073C23.0135 15.6453 23.1934 15.7143 23.3734 15.7143C23.5533 15.7143 23.7333 15.6453 23.8705 15.5073L26.2299 13.1366C26.4156 12.9499 26.6625 12.8472 26.9251 12.8472C27.1878 12.8472 27.4347 12.95 27.6204 13.1366C27.8061 13.3232 27.9084 13.5713 27.9084 13.8352C27.9084 14.0991 27.8061 14.3472 27.6204 14.5338L25.2611 16.9045C24.9865 17.1804 24.9865 17.6278 25.2611 17.9037C25.3984 18.0417 25.5783 18.1107 25.7582 18.1107C25.9382 18.1107 26.1182 18.0417 26.2554 17.9037L28.6147 15.533C28.998 15.1477 29.6219 15.1478 30.0052 15.533C30.3887 15.9182 30.3887 16.5451 30.0052 16.9303L24.1936 22.77C22.3329 24.6397 19.8589 25.6695 17.2273 25.6695C16.5147 25.6695 15.8312 25.858 15.232 26.2104L11.1623 22.121C11.4755 22.0022 11.7629 21.8173 12.0067 21.5723C12.4573 21.1196 12.7056 20.518 12.7065 19.8779C13.3169 19.8767 13.927 19.6427 14.3917 19.1758C14.8564 18.7089 15.0892 18.0959 15.0903 17.4825C15.7273 17.4817 16.3261 17.2321 16.7766 16.7793C17.2412 16.3124 17.474 15.6994 17.4752 15.0861C18.1122 15.0852 18.7109 14.8356 19.1614 14.3829C19.6127 13.9294 19.8612 13.3265 19.8612 12.6851C19.8612 12.0438 19.6127 11.4408 19.1614 10.9873L18.9951 10.8202L21.4601 8.34364ZM14.2446 9.44219C14.4303 9.2556 14.6772 9.1528 14.9398 9.1528C15.2024 9.1528 15.4494 9.2556 15.6351 9.44219L18.1672 11.9865C18.3529 12.1731 18.4552 12.4212 18.4552 12.6851C18.4552 12.949 18.3529 13.1971 18.1672 13.3838C17.9816 13.5704 17.7346 13.6732 17.472 13.6732C17.2095 13.6732 16.9627 13.5705 16.777 13.384C16.7769 13.3839 16.7768 13.3839 16.7768 13.3837L14.2446 10.8394C14.0589 10.6528 13.9566 10.4047 13.9566 10.1408C13.9566 9.8769 14.0588 9.62885 14.2446 9.44219V9.44219ZM11.8596 11.8386C12.0514 11.6459 12.3031 11.5497 12.5549 11.5497C12.8067 11.5497 13.0586 11.646 13.2502 11.8386L15.7823 14.3829C16.1657 14.7682 16.1656 15.395 15.7823 15.7803C15.5966 15.9669 15.3497 16.0697 15.0871 16.0697C14.8245 16.0697 14.5777 15.9669 14.392 15.7805C14.392 15.7804 14.3919 15.7803 14.3918 15.7802L11.8597 13.2359C11.6739 13.0493 11.5717 12.8011 11.5717 12.5372C11.5716 12.2733 11.6739 12.0252 11.8596 11.8386V11.8386ZM9.47475 14.2351C9.66044 14.0484 9.90737 13.9457 10.17 13.9457C10.4327 13.9457 10.6796 14.0485 10.8653 14.2351L13.3974 16.7794C13.7808 17.1647 13.7808 17.7915 13.3974 18.1767C13.014 18.5619 12.3902 18.5619 12.0068 18.1767L9.47468 15.6323C9.09134 15.2471 9.09134 14.6203 9.47475 14.2351V14.2351ZM8.12948 17.6762C8.32122 17.4835 8.57301 17.3873 8.82479 17.3873C9.07622 17.3873 9.3278 17.4834 9.51932 17.6755L11.0125 19.1759C11.1981 19.3625 11.3004 19.6106 11.3004 19.8745C11.3004 20.1384 11.1981 20.3865 11.0125 20.5731C10.8268 20.7598 10.5798 20.8625 10.3171 20.8625C10.0547 20.8625 9.80795 20.7599 9.62226 20.5735L9.62191 20.5731L8.12948 19.0735C7.74615 18.6882 7.74615 18.0614 8.12948 17.6762V17.6762ZM7.5722 23.632L9.12481 22.0719L14.146 27.1172L12.5934 28.6774L7.5722 23.632ZM22.3454 28.0272C22.1722 27.8533 21.9215 27.782 21.6836 27.84C20.6194 28.0974 19.4849 27.8982 18.5708 27.2932L18.19 27.0411C20.8341 26.8175 23.2903 25.6761 25.1881 23.7691L28.697 20.2433C28.9989 20.9763 29.1617 21.7597 29.1767 22.5561L23.0387 28.7238L22.3454 28.0272Z" fill="#0D0D0D"/>
<path d="M28.4843 28.3702C28.3535 28.5016 28.2783 28.6832 28.2783 28.8697C28.2783 29.0555 28.3535 29.2378 28.4843 29.3692C28.6151 29.5006 28.7965 29.5762 28.9814 29.5762C29.167 29.5762 29.3477 29.5007 29.4785 29.3692C29.6093 29.2378 29.6845 29.0555 29.6845 28.8697C29.6845 28.6831 29.6093 28.5016 29.4785 28.3702C29.3477 28.2388 29.1663 28.1632 28.9814 28.1632C28.7965 28.1632 28.6151 28.2388 28.4843 28.3702Z" fill="black"/>
<path d="M4.07829 7.35779C4.21561 7.49577 4.39553 7.56472 4.57546 7.56472C4.75538 7.56472 4.93538 7.49577 5.07263 7.35779C5.34719 7.08189 5.34719 6.63453 5.07263 6.35857L1.76301 3.03297C1.48845 2.75708 1.04324 2.75708 0.768603 3.03297C0.493967 3.30886 0.494038 3.75622 0.768603 4.03218L4.07829 7.35779Z" fill="#EB9309"/>
<path d="M13.6407 6.67765C14.029 6.67765 14.3438 6.36134 14.3438 5.97114V3.53256C14.3438 3.14235 14.029 2.82605 13.6407 2.82605C13.2524 2.82605 12.9376 3.14235 12.9376 3.53256V5.97114C12.9376 6.36134 13.2524 6.67765 13.6407 6.67765Z" fill="#EB9309"/>
<path d="M1.8282 11.0217H4.25506C4.64339 11.0217 4.95817 10.7054 4.95817 10.3152C4.95817 9.92495 4.64339 9.60864 4.25506 9.60864H1.8282C1.43987 9.60864 1.12509 9.92495 1.12509 10.3152C1.12509 10.7054 1.43987 11.0217 1.8282 11.0217V11.0217Z" fill="#EB9309"/>
<path d="M30.8022 7.69247C30.948 7.68146 31.0894 7.61144 31.1918 7.48495L33.6604 4.43616C33.8652 4.18324 33.8366 3.80034 33.5965 3.58093C33.3564 3.36152 32.9957 3.3888 32.7908 3.64173L30.3222 6.69052C30.1174 6.94344 30.146 7.32634 30.3861 7.54575C30.5063 7.65545 30.6565 7.70347 30.8022 7.69247Z" fill="#EB9309"/>
<path d="M32.1669 11.4455C32.1669 11.8357 32.4817 12.152 32.87 12.152H35.2969C35.6852 12.152 36 11.8357 36 11.4455C36 11.0553 35.6852 10.739 35.2969 10.739H32.87C32.4817 10.739 32.1669 11.0553 32.1669 11.4455V11.4455Z" fill="#EB9309"/>
<path d="M22.0782 4.98209C22.4666 4.98209 22.7813 4.66579 22.7813 4.27558V1.837C22.7813 1.4468 22.4666 1.13049 22.0782 1.13049C21.6899 1.13049 21.3751 1.4468 21.3751 1.837V4.27558C21.3751 4.66579 21.6899 4.98209 22.0782 4.98209Z" fill="#EB9309"/>
</g>
<defs>
<clipPath id="clip0_899_946">
<rect width="36" height="39" fill="white" transform="translate(0.00012207)"/>
</clipPath>
</defs>
</svg>
