<svg width="53" height="56" viewBox="0 0 53 56" fill="none" xmlns="http://www.w3.org/2000/svg">
<path d="M45.0274 32.1134C45.023 30.345 44.6053 28.6071 43.8087 27.0294L45.6382 25.2044C47.0098 23.8362 47.0098 21.6099 45.6382 20.2416C44.9541 19.5591 44.056 19.2172 43.1573 19.2156C43.1561 18.2801 42.7904 17.4008 42.1271 16.7391C41.4426 16.0564 40.5438 15.7144 39.6446 15.7132C39.6433 14.8161 39.3005 13.9195 38.616 13.2367C37.9531 12.5755 37.0722 12.2107 36.1351 12.2091C36.1333 11.2743 35.7677 10.3955 35.1049 9.73426C34.4404 9.07144 33.5569 8.70642 32.6173 8.70642C31.6778 8.70642 30.7943 9.07144 30.1299 9.73426L26.5011 13.3541L24.482 11.3398C23.8176 10.677 22.9342 10.312 21.9945 10.312C21.0548 10.312 20.1714 10.677 19.507 11.3398C18.8437 12.0015 18.4781 12.8808 18.4768 13.8163C17.5782 13.8179 16.68 14.1598 15.9959 14.8423C15.333 15.5035 14.9673 16.3822 14.9656 17.3171C14.0285 17.3188 13.1476 17.6835 12.4847 18.3448C11.352 19.4747 11.1558 21.1893 11.8937 22.5231C11.3855 22.6888 10.9075 22.9718 10.5043 23.3741C9.1327 24.7424 9.1327 26.9687 10.5043 28.337L11.9695 29.7986L0.328556 41.4109C-0.0756645 41.8141 -0.0756645 42.4679 0.328556 42.8713C0.530718 43.0728 0.795609 43.1737 1.0605 43.1737C1.32539 43.1737 1.59039 43.0728 1.79245 42.8713L9.6837 34.9994L17.0759 42.3735L5.23562 54.1846C4.8314 54.5878 4.8314 55.2417 5.23562 55.645C5.43778 55.8466 5.70267 55.9474 5.96756 55.9474C6.23245 55.9474 6.49745 55.8466 6.69951 55.645L22.7031 39.6808C22.9979 39.3867 23.3335 39.1484 23.6966 38.9691L26.2013 40.6147C27.8578 41.7031 29.8774 42.1283 31.8246 41.8138L45.7428 55.6977C45.9449 55.8992 46.2098 56.0001 46.4747 56.0001C46.7396 56.0001 47.0046 55.8992 47.2067 55.6977C47.6109 55.2944 47.6109 54.6406 47.2067 54.2373L39.1311 46.1816L40.1074 45.2078C40.5116 44.8046 40.5116 44.1507 40.1074 43.7474C39.7032 43.3443 39.0477 43.3443 38.6434 43.7474L37.6672 44.7212L35.3815 42.4412L43.917 33.9266L46.2028 36.2067L45.2287 37.1784C44.8245 37.5817 44.8245 38.2355 45.2287 38.6388C45.4309 38.8403 45.6958 38.9412 45.9607 38.9412C46.2256 38.9412 46.4906 38.8403 46.6926 38.6388L47.6667 37.6671L51.2322 41.2239C51.4344 41.4254 51.6993 41.5263 51.9641 41.5263C52.229 41.5263 52.494 41.4254 52.6961 41.2239C53.1003 40.8206 53.1003 40.1668 52.6961 39.7635L45.0274 32.1134ZM31.5938 11.1945C31.8672 10.9218 32.2307 10.7716 32.6173 10.7716C33.004 10.7716 33.3675 10.9218 33.6409 11.1945C33.9144 11.4673 34.0649 11.8299 34.0649 12.2156C34.0649 12.6013 33.9143 12.964 33.6409 13.2367L31.3662 15.5058C30.962 15.909 30.962 16.5629 31.3662 16.9662C31.7704 17.3695 32.4258 17.3694 32.8302 16.9662L35.1049 14.6971C35.3783 14.4243 35.7418 14.2741 36.1285 14.2741C36.5152 14.2741 36.8787 14.4244 37.1521 14.6971C37.7165 15.2602 37.7165 16.1762 37.1521 16.7392L33.6786 20.2042C33.2743 20.6074 33.2743 21.2613 33.6786 21.6646C33.8807 21.8662 34.1456 21.967 34.4105 21.967C34.6754 21.967 34.9404 21.8662 35.1425 21.6646L38.616 18.1996C38.8893 17.9268 39.2529 17.7767 39.6395 17.7767C40.0262 17.7767 40.3898 17.9269 40.6632 18.1996C40.9365 18.4723 41.0871 18.835 41.0871 19.2207C41.0871 19.6063 40.9365 19.969 40.6632 20.2417L37.1897 23.7066C36.7854 24.1099 36.7854 24.7637 37.1897 25.167C37.3918 25.3687 37.6567 25.4695 37.9216 25.4695C38.1865 25.4695 38.4515 25.3687 38.6535 25.167L42.1269 21.7021C42.6913 21.139 43.6098 21.1391 44.1741 21.7021C44.7386 22.2651 44.7386 23.1812 44.1741 23.7442L35.6181 32.2792C32.8787 35.0119 29.2365 36.5169 25.3622 36.5169C24.3131 36.5169 23.3067 36.7925 22.4246 37.3075L16.4331 31.3307C16.8941 31.1571 17.3173 30.8868 17.6763 30.5287C18.3396 29.8671 18.7052 28.9878 18.7066 28.0523C19.6052 28.0506 20.5034 27.7086 21.1875 27.0262C21.8716 26.3438 22.2143 25.4479 22.216 24.5514C23.1538 24.5501 24.0353 24.1853 24.6986 23.5237C25.3827 22.8412 25.7254 21.9453 25.7271 21.0488C26.6649 21.0476 27.5463 20.6828 28.2095 20.0212C28.874 19.3584 29.2399 18.4772 29.2399 17.5398C29.2399 16.6024 28.874 15.7212 28.2095 15.0584L27.9647 14.8142L31.5938 11.1945ZM20.9709 12.8001C21.2443 12.5274 21.6078 12.3772 21.9945 12.3772C22.3811 12.3772 22.7446 12.5274 23.018 12.8001L26.746 16.5188C27.0193 16.7915 27.1699 17.1541 27.1699 17.5398C27.1699 17.9255 27.0193 18.2881 26.746 18.5609C26.4726 18.8336 26.109 18.9839 25.7224 18.9839C25.3359 18.9839 24.9726 18.8337 24.6992 18.5612C24.6991 18.5611 24.699 18.561 24.6989 18.5608L20.9709 14.8422C20.6975 14.5695 20.5469 14.2068 20.5469 13.8211C20.5469 13.4355 20.6974 13.0729 20.9709 12.8001ZM17.4597 16.3026C17.742 16.021 18.1126 15.8803 18.4834 15.8803C18.8541 15.8803 19.2249 16.0211 19.5069 16.3026L23.2348 20.0212C23.7992 20.5843 23.7991 21.5004 23.2348 22.0635C22.9614 22.3362 22.5979 22.4864 22.2112 22.4864C21.8247 22.4864 21.4614 22.3363 21.188 22.0638C21.1879 22.0637 21.1878 22.0636 21.1877 22.0634L17.4599 18.3447C17.1864 18.072 17.0359 17.7094 17.0359 17.3236C17.0358 16.9379 17.1864 16.5754 17.4597 16.3026ZM13.9487 19.8051C14.222 19.5323 14.5856 19.3821 14.9722 19.3821C15.3589 19.3821 15.7225 19.5324 15.9959 19.8051L19.7237 23.5238C20.2882 24.0868 20.2882 25.0029 19.7237 25.5659C19.1592 26.1289 18.2409 26.129 17.6764 25.5659L13.9486 21.8472C13.3842 21.2843 13.3842 20.3681 13.9487 19.8051ZM11.9681 24.8344C12.2504 24.5528 12.6211 24.4122 12.9918 24.4122C13.362 24.4122 13.7323 24.5527 14.0143 24.8335L16.2125 27.0263C16.4859 27.299 16.6365 27.6616 16.6365 28.0473C16.6365 28.433 16.4859 28.7956 16.2125 29.0684C15.9391 29.3413 15.5756 29.4914 15.1889 29.4914C14.8026 29.4914 14.4392 29.3414 14.1658 29.069L14.1653 29.0684L11.9681 26.8767C11.4038 26.3135 11.4038 25.3974 11.9681 24.8344ZM11.1477 33.539L13.4335 31.2589L20.8258 38.6329L18.54 40.9131L11.1477 33.539ZM32.8971 39.9629C32.6422 39.7087 32.2731 39.6045 31.9228 39.6892C30.3561 40.0654 28.6858 39.7742 27.3401 38.89L26.7795 38.5216C30.6721 38.1949 34.2883 36.5266 37.0822 33.7395L42.2481 28.5863C42.6925 29.6576 42.9323 30.8027 42.9543 31.9666L33.9178 40.981L32.8971 39.9629Z" fill="white"/>
<path d="M41.9351 40.4643C41.7426 40.6564 41.6318 40.9217 41.6318 41.1944C41.6318 41.4659 41.7426 41.7323 41.9351 41.9243C42.1277 42.1164 42.3947 42.227 42.667 42.227C42.9403 42.227 43.2063 42.1165 43.3988 41.9243C43.5914 41.7323 43.7021 41.4659 43.7021 41.1944C43.7021 40.9216 43.5914 40.6564 43.3988 40.4643C43.2063 40.2722 42.9392 40.1617 42.667 40.1617C42.3947 40.1617 42.1277 40.2722 41.9351 40.4643Z" fill="white"/>
<path d="M6.00392 9.7538C6.20608 9.95546 6.47098 10.0562 6.73587 10.0562C7.00076 10.0562 7.26575 9.95546 7.46781 9.7538C7.87203 9.35057 7.87203 8.69674 7.46781 8.29341L2.59532 3.43291C2.1911 3.02969 1.53565 3.02969 1.13133 3.43291C0.727005 3.83614 0.727109 4.48997 1.13133 4.8933L6.00392 9.7538Z" fill="white"/>
<path d="M20.082 8.75975C20.6537 8.75975 21.1171 8.29746 21.1171 7.72716V4.16308C21.1171 3.59278 20.6537 3.13049 20.082 3.13049C19.5103 3.13049 19.0469 3.59278 19.0469 4.16308V7.72716C19.0469 8.29746 19.5103 8.75975 20.082 8.75975Z" fill="white"/>
<path d="M2.69139 15.1088H6.26426C6.83597 15.1088 7.2994 14.6465 7.2994 14.0762C7.2994 13.5059 6.83597 13.0436 6.26426 13.0436H2.69139C2.11968 13.0436 1.65625 13.5059 1.65625 14.0762C1.65625 14.6465 2.11968 15.1088 2.69139 15.1088Z" fill="white"/>
<path d="M45.3475 10.2431C45.5622 10.227 45.7704 10.1246 45.9211 9.93976L49.5554 5.48385C49.8569 5.11419 49.8148 4.55456 49.4613 4.23389C49.1078 3.91321 48.5768 3.95309 48.2752 4.32275L44.6408 8.77867C44.3393 9.14833 44.3815 9.70795 44.735 10.0286C44.9118 10.189 45.1329 10.2591 45.3475 10.2431Z" fill="white"/>
<path d="M47.3564 15.7281C47.3564 16.2984 47.8199 16.7607 48.3916 16.7607H51.9645C52.5362 16.7607 52.9996 16.2984 52.9996 15.7281C52.9996 15.1578 52.5362 14.6956 51.9645 14.6956H48.3916C47.8199 14.6956 47.3564 15.1578 47.3564 15.7281Z" fill="white"/>
<path d="M32.5039 6.28136C33.0756 6.28136 33.539 5.81907 33.539 5.24877V1.68469C33.539 1.11439 33.0756 0.6521 32.5039 0.6521C31.9322 0.6521 31.4688 1.11439 31.4688 1.68469V5.24877C31.4688 5.81907 31.9322 6.28136 32.5039 6.28136Z" fill="white"/>
</svg>
