<svg width="48" height="50" viewBox="0 0 48 50" fill="none" xmlns="http://www.w3.org/2000/svg">
<g clip-path="url(#clip0_1125_8029)">
<path d="M36.4865 21.0724C36.12 20.6905 35.5265 20.6905 35.16 21.0724C34.7943 21.4533 34.7943 22.0715 35.16 22.4534C35.5265 22.8353 36.12 22.8353 36.4865 22.4534C36.8522 22.0715 36.8522 21.4533 36.4865 21.0724Z" fill="#EB9309"/>
<path d="M47.1711 6.19989L42 0.99999C40.4525 -0.155285 37.9896 0.344735 37 1.5L36.1898 2.44651C35.4925 3.17294 35.2256 4.19579 35.4359 5.16776L27.7473 6.58107C26.0327 6.89722 24.4769 7.74153 23.2488 9.02212L21.6052 10.7334C20.5227 11.8611 20.0816 13.4076 20.2813 14.8768C18.8606 14.6678 17.3884 15.1273 16.3028 16.2581C15.2188 17.3868 14.7755 18.9191 14.9761 20.4024C13.5558 20.1943 12.0841 20.6532 10.9993 21.7833C9.94611 22.8804 9.4664 24.3996 9.67358 25.9291C8.26312 25.7208 6.77851 26.1804 5.69589 27.3081L1.91863 31.2422C-0.639512 33.9073 -0.639605 38.2449 1.91872 40.9113L8.54793 47.8173C11.107 50.482 15.2703 50.4827 17.8293 47.8171L21.6054 43.8822C22.6881 42.7544 23.1292 41.2074 22.9291 39.738C24.3907 39.9527 25.8515 39.4587 26.9088 38.3574C27.991 37.2299 28.432 35.6834 28.2322 34.2139C29.6861 34.4278 31.1491 33.941 32.2123 32.8324C33.2946 31.7049 33.7356 30.1586 33.5359 28.6895C35.0036 28.9053 36.4622 28.406 37.5159 27.3082L39.158 25.5967C40.3878 24.3167 41.1981 22.6959 41.5016 20.9091L42.8582 12.9C43.7894 13.1187 44.7716 12.8427 45.4704 12.1147L47.171 10.343C48.2702 9.19801 48.2704 7.34501 47.1711 6.19989ZM20.2796 42.501L16.5034 46.4359C14.6761 48.3397 11.7018 48.3396 9.87364 46.4359L3.24472 39.5302C1.41726 37.6256 1.41726 34.5271 3.24453 32.6234L7.02179 28.6894C8.11837 27.5469 9.90271 27.5469 10.9994 28.6894L20.2796 38.3572C21.3763 39.4997 21.3763 41.3585 20.2796 42.501ZM25.5829 36.9761C24.4867 38.118 22.7061 38.1228 21.6054 36.9761L12.3251 27.3082C11.2263 26.1634 11.226 24.3096 12.3252 23.1645C13.4233 22.0204 15.2015 22.02 16.3019 23.1638L16.3027 23.1646L25.5826 32.832C26.679 33.9749 26.6793 35.834 25.5829 36.9761ZM30.8861 31.4516C29.7882 32.5967 28.0073 32.5969 26.9089 31.4512L17.6283 21.7831C16.5288 20.6384 16.5283 18.7849 17.6286 17.6395C18.7282 16.494 20.5055 16.4938 21.6053 17.6395L30.8865 27.3084C31.983 28.4505 31.9829 30.309 30.8861 31.4516ZM39.6552 20.5693C39.4192 21.959 38.789 23.2196 37.8322 24.2154L36.1899 25.9272C35.0933 27.0697 33.3089 27.0697 32.2123 25.9272L22.9311 16.2583C21.8345 15.1159 21.8345 13.2571 22.9309 12.1148L24.5748 10.4032C25.5301 9.40702 26.7403 8.75051 28.0737 8.50459L36.535 6.94927L41.1481 11.7552L39.6552 20.5693ZM45.8452 8.96186L44.1446 10.7335C43.7782 11.1151 43.1856 11.1152 42.8192 10.7335L37.5158 5.20848C37.1495 4.82671 37.1494 4.20947 37.5159 3.82769L39 2C39.3665 1.61832 40.1336 1.61842 40.5 2L45.8452 7.58107C46.2109 7.96216 46.2122 8.5793 45.8452 8.96186Z" fill="#0D0D0D"/>
<path d="M44.243 36.8547L40.0656 28.3286C39.9053 28.0017 39.5828 27.796 39.2305 27.796C38.8782 27.796 38.5557 28.0017 38.3955 28.3286L34.2183 36.8543C32.3197 40.7239 35.0252 45.3757 39.2305 45.3757C43.4351 45.3757 46.1416 40.7247 44.243 36.8547ZM39.2305 43.4224C36.4242 43.4224 34.6248 40.3176 35.8882 37.7428L39.2305 30.9209L42.5732 37.7432C43.835 40.3152 42.0396 43.4224 39.2305 43.4224Z" fill="#EB9309"/>
<path d="M33.8357 18.3094L29.3095 13.5941C28.9433 13.2127 28.3498 13.2127 27.9836 13.5941C27.6175 13.9755 27.6175 14.5939 27.9836 14.9753L32.5098 19.6905C32.876 20.0719 33.4694 20.0719 33.8357 19.6905C34.2018 19.3091 34.2018 18.6907 33.8357 18.3094Z" fill="#EB9309"/>
</g>
<defs>
<clipPath id="clip0_1125_8029">
<rect width="48" height="50" fill="white"/>
</clipPath>
</defs>
</svg>
