<svg width="758" height="672" viewBox="0 0 758 672" fill="none" xmlns="http://www.w3.org/2000/svg">
<path d="M556.656 0C515.524 0 477.814 13.0891 444.574 38.9046C412.707 63.6542 391.491 95.1772 379 118.1C366.509 95.1757 345.293 63.6542 313.426 38.9046C280.186 13.0891 242.476 0 201.344 0C86.5601 0 0 94.2837 0 219.313C0 354.388 107.99 446.804 271.472 586.71C299.234 610.469 330.701 637.399 363.408 666.121C367.719 669.913 373.256 672 379 672C384.744 672 390.281 669.913 394.592 666.123C427.302 637.396 458.768 610.467 486.546 586.695C650.01 446.804 758 354.388 758 219.313C758 94.2837 671.44 0 556.656 0Z" fill="#A8A8A8"/>
</svg>
